<?xml version="1.0" encoding="UTF-8" standalone="no"?>
<svg
   width="66mm"
   height="66mm"
   viewBox="0 0 66 66"
   version="1.1"
   id="svg45"
   sodipodi:docname="menu-zest-symbolic.svg"
   inkscape:version="1.4.2 (unknown)"
   xmlns:inkscape="http://www.inkscape.org/namespaces/inkscape"
   xmlns:sodipodi="http://sodipodi.sourceforge.net/DTD/sodipodi-0.dtd"
   xmlns="http://www.w3.org/2000/svg"
   xmlns:svg="http://www.w3.org/2000/svg">
  <defs
     id="defs45" />
  <sodipodi:namedview
     id="namedview45"
     pagecolor="#ffffff"
     bordercolor="#000000"
     borderopacity="0.25"
     inkscape:showpageshadow="2"
     inkscape:pageopacity="0.0"
     inkscape:pagecheckerboard="0"
     inkscape:deskcolor="#d1d1d1"
     inkscape:document-units="mm"
     inkscape:zoom="3.2882251"
     inkscape:cx="21.440138"
     inkscape:cy="201.93265"
     inkscape:window-width="2560"
     inkscape:window-height="1363"
     inkscape:window-x="0"
     inkscape:window-y="0"
     inkscape:window-maximized="1"
     inkscape:current-layer="svg45" />
  <g
     style="fill:#000000;fill-opacity:1;stroke:none"
     id="g4"
     transform="translate(1.0583333,45.150275)">
    <path
       d="m 1.722,0.272 c -0.802,0 -1.458,0.656 -1.458,1.456 0,0.8 0.656,1.457 1.458,1.457 0.802,0 1.457,-0.656 1.457,-1.457 0,-0.8 -0.656,-1.456 -1.457,-1.456 m 0,0.532 A 0.92,0.92 0 0 1 2.648,1.728 0.92,0.92 0 0 1 1.722,2.653 0.92,0.92 0 0 1 0.796,1.728 0.92,0.92 0 0 1 1.722,0.804"
       style="fill:#000000;fill-opacity:1;stroke:none;stroke-width:0.264583"
       transform="matrix(0.54399,0,0,0.54399,23.23,8.96)"
       id="path3" />
    <path
       d="M 2.596,2.39 A 0.265,0.265 0 0 0 2.464,2.844 L 3.522,3.903 A 0.266,0.266 0 1 0 3.894,3.523 L 2.836,2.463 A 0.27,0.27 0 0 0 2.596,2.39"
       style="fill:#000000;fill-opacity:1;stroke:none;stroke-width:0.264583"
       transform="matrix(0.54399,0,0,0.54399,23.23,8.96)"
       id="path4" />
  </g>
  <g
     id="g45">
    <path
       d="m 10.000897,53.859 c -0.7770004,0 -1.4100004,0.633 -1.4100004,1.41 0,0.775 0.633,1.408 1.4100004,1.408 0.777,0 1.408,-0.633 1.408,-1.409 0,-0.776 -0.632,-1.409 -1.408,-1.409 m 0,0.266 c 0.633,0 1.143,0.51 1.143,1.143 0,0.634 -0.51,1.144 -1.143,1.144 -0.6340004,0 -1.1440004,-0.51 -1.1440004,-1.144 0,-0.634 0.51,-1.143 1.1440004,-1.143 m 4.459,-0.266 c -0.777,0 -1.409,0.633 -1.409,1.41 a 1.41,1.41 0 0 0 1.409,1.408 c 0.776,0 1.409,-0.633 1.409,-1.409 0,-0.776 -0.633,-1.409 -1.41,-1.409 m 0,0.266 c 0.634,0 1.144,0.51 1.144,1.143 0,0.634 -0.51,1.144 -1.143,1.144 -0.634,0 -1.144,-0.51 -1.144,-1.144 0,-0.634 0.51,-1.143 1.144,-1.143 m 4.459,-0.266 a 1.41,1.41 0 0 0 -1.409,1.41 1.41,1.41 0 0 0 1.409,1.408 1.41,1.41 0 0 0 1.409,-1.409 c 0,-0.776 -0.633,-1.409 -1.409,-1.409 m 0,0.266 c 0.633,0 1.143,0.51 1.143,1.143 0,0.634 -0.51,1.144 -1.143,1.144 a 1.144,1.144 0 1 1 0,-2.288"
       style="color:#000000;font-style:normal;font-variant:normal;font-weight:400;font-stretch:normal;font-size:medium;line-height:normal;font-family:sans-serif;font-variant-ligatures:normal;font-variant-position:normal;font-variant-caps:normal;font-variant-numeric:normal;font-variant-alternates:normal;font-feature-settings:normal;text-indent:0;text-align:start;text-decoration:none;text-decoration-line:none;text-decoration-style:solid;text-decoration-color:#000000;letter-spacing:normal;word-spacing:normal;text-transform:none;writing-mode:lr-tb;direction:ltr;text-orientation:mixed;dominant-baseline:auto;baseline-shift:baseline;text-anchor:start;white-space:normal;shape-padding:0;clip-rule:nonzero;display:inline;overflow:visible;visibility:visible;isolation:auto;mix-blend-mode:normal;color-interpolation:sRGB;color-interpolation-filters:linearRGB;solid-color:#000000;solid-opacity:1;fill:#000000;fill-opacity:1;fill-rule:nonzero;stroke:none;stroke-width:0.99914;stroke-linecap:butt;stroke-linejoin:round;stroke-miterlimit:4;stroke-dasharray:none;stroke-dashoffset:0;stroke-opacity:1;color-rendering:auto;image-rendering:auto;shape-rendering:auto;text-rendering:auto"
       id="path5" />
    <g
       style="fill:#000000;fill-opacity:1;stroke:none"
       id="g6"
       transform="translate(-37.893103,-0.422)">
      <path
         d="M 5.337,8.247 6.085,8.996 8.731,6.35 6.085,3.704 5.337,4.453 6.705,5.82 H 1.588 v 1.058 h 5.117 z m 4.717,-6.66 H 2.646 c -0.585,0 -1.058,0.474 -1.058,1.059 V 4.763 H 2.646 V 2.646 h 7.408 v 7.408 H 2.646 V 7.937 H 1.588 v 2.117 c 0,0.585 0.473,1.058 1.058,1.058 h 7.408 c 0.585,0 1.058,-0.473 1.058,-1.058 V 2.646 c 0,-0.585 -0.473,-1.058 -1.058,-1.058"
         style="fill:#000000;fill-opacity:1;stroke:none;stroke-width:0.264583"
         transform="matrix(0.13446,0,0,0.13446,47.049,54.815)"
         id="path6" />
    </g>
    <g
       style="fill:#000000;fill-opacity:1;stroke:none"
       id="g7"
       transform="translate(-37.893103,-0.422)">
      <path
         d="M 9.525,4.233 H 8.995 V 3.175 a 2.647,2.647 0 0 0 -5.29,0 v 1.058 h -0.53 c -0.585,0 -1.058,0.474 -1.058,1.059 v 5.291 c 0,0.585 0.473,1.059 1.058,1.059 h 6.35 c 0.585,0 1.058,-0.474 1.058,-1.059 V 5.292 C 10.583,4.707 10.11,4.233 9.525,4.233 M 6.35,1.535 c 0.905,0 1.64,0.735 1.64,1.64 V 4.233 H 4.763 V 3.175 H 4.71 c 0,-0.905 0.735,-1.64 1.64,-1.64 m 3.175,9.048 H 3.175 V 5.292 h 6.35 z M 6.35,8.996 a 1.058,1.058 0 1 0 0,-2.116 1.058,1.058 0 0 0 0,2.116"
         style="fill:#000000;fill-opacity:1;stroke:none;stroke-width:0.264583"
         transform="matrix(0.14797,0,0,0.14797,51.413,54.707)"
         id="path7" />
    </g>
    <path
       d="m 18.850897,54.421 0.134,-0.023 v 0.736 h -0.134 z"
       style="color:#000000;display:inline;overflow:visible;visibility:visible;fill:#000000;fill-opacity:1;stroke:none;stroke-width:0.200754;marker:none"
       id="path8" />
    <path
       d="m 18.549897,54.631 a 0.736,0.736 0 1 0 0.736,0 l -0.067,0.116 a 0.601,0.601 0 1 1 -0.602,0 z"
       style="color:#000000;font-style:normal;font-variant:normal;font-weight:400;font-stretch:normal;font-size:medium;line-height:normal;font-family:sans-serif;font-variant-ligatures:normal;font-variant-position:normal;font-variant-caps:normal;font-variant-numeric:normal;font-variant-alternates:normal;font-feature-settings:normal;text-indent:0;text-align:start;text-decoration:none;text-decoration-line:none;text-decoration-style:solid;text-decoration-color:#000000;letter-spacing:normal;word-spacing:normal;text-transform:none;writing-mode:lr-tb;direction:ltr;text-orientation:mixed;dominant-baseline:auto;baseline-shift:baseline;text-anchor:start;white-space:normal;shape-padding:0;clip-rule:nonzero;display:inline;overflow:visible;visibility:visible;isolation:auto;mix-blend-mode:normal;color-interpolation:sRGB;color-interpolation-filters:linearRGB;solid-color:#000000;solid-opacity:1;fill:#000000;fill-opacity:1;fill-rule:nonzero;stroke:none;stroke-width:0.0843061;stroke-linecap:butt;stroke-linejoin:round;stroke-miterlimit:4;stroke-dasharray:none;stroke-dashoffset:0;stroke-opacity:1;marker:none;color-rendering:auto;image-rendering:auto;shape-rendering:auto;text-rendering:auto"
       id="path9" />
  </g>
  <g
     style="fill:#000000;fill-opacity:1;stroke:none"
     id="g10"
     transform="translate(0,-3.7041668)">
    <path
       d="m 7.023,251.42 -0.002,0.793 3.97,0.015 0.001,-0.792 z m 5.557,0.021 -0.002,0.793 4.762,0.02 0.004,-0.793 z m 6.35,0.026 -0.002,0.793 1.033,0.004 0.002,-0.793 z m -11.852,4.847 -0.004,0.795 3.969,0.016 0.004,-0.793 z m 5.557,0.024 -0.004,0.793 4.762,0.02 0.003,-0.796 z m 6.35,0.025 -0.005,0.793 1.034,0.004 0.004,-0.793 z m -11.845,4.678 -0.004,0.795 3.968,0.016 0.004,-0.795 z m 5.556,0.022 -0.004,0.794 4.764,0.02 0.002,-0.795 z m 6.35,0.025 -0.004,0.795 1.033,0.004 0.004,-0.795 z m -11.79,5.082 -0.003,0.795 3.969,0.015 0.004,-0.794 z m 5.557,0.023 -0.003,0.793 4.761,0.02 0.004,-0.795 z m 6.35,0.026 -0.004,0.793 1.033,0.004 0.004,-0.793 z m -11.969,4.435 -0.004,0.793 3.97,0.016 0.003,-0.793 z m 5.555,0.022 -0.002,0.795 4.762,0.017 0.004,-0.793 z m 6.352,0.025 -0.004,0.795 1.033,0.004 0.002,-0.795 z m -11.791,4.33 -0.002,0.793 3.968,0.016 0.002,-0.793 z m 5.556,0.022 -0.004,0.793 4.764,0.02 0.002,-0.794 z m 6.35,0.025 -0.002,0.793 1.031,0.004 0.004,-0.793 z m -11.9,4.436 -0.005,0.795 3.97,0.015 0.003,-0.795 z m 5.554,0.021 -0.002,0.795 4.762,0.02 0.004,-0.795 z m 6.352,0.026 -0.004,0.795 1.033,0.004 0.002,-0.793 z m -11.906,-32.912 -0.004,0.792 3.97,0.018 0.003,-0.795 z m 5.555,0.021 -0.002,0.795 4.762,0.02 0.004,-0.796 z m 6.352,0.025 -0.004,0.795 1.033,0.004 0.002,-0.795 z M 1.806,268.347 a 0.124,0.124 0 0 0 -0.124,0.124 v 3.39 c 0,0.068 0.055,0.124 0.124,0.124 h 3.08 a 0.124,0.124 0 0 0 0.125,-0.125 v -3.39 a 0.124,0.124 0 0 0 -0.124,-0.123 z m 0,4.063 a 0.124,0.124 0 0 0 -0.124,0.124 v 3.39 c 0,0.068 0.055,0.124 0.124,0.124 h 3.08 a 0.124,0.124 0 0 0 0.125,-0.124 v -3.39 A 0.124,0.124 0 0 0 4.887,272.41 Z m 0,4.379 a 0.124,0.124 0 0 0 -0.124,0.124 v 3.39 c 0,0.068 0.055,0.124 0.124,0.124 h 3.08 a 0.124,0.124 0 0 0 0.125,-0.125 v -3.39 a 0.124,0.124 0 0 0 -0.124,-0.123 z m 0,-26.12 a 0.124,0.124 0 0 0 -0.124,0.124 v 3.39 c 0,0.068 0.055,0.124 0.124,0.124 h 3.08 a 0.124,0.124 0 0 0 0.125,-0.125 v -3.39 a 0.124,0.124 0 0 0 -0.124,-0.123 z m 0,4.512 a 0.124,0.124 0 0 0 -0.124,0.124 v 3.39 c 0,0.068 0.055,0.124 0.124,0.124 h 3.08 a 0.124,0.124 0 0 0 0.125,-0.124 v -3.39 a 0.124,0.124 0 0 0 -0.124,-0.124 z m 0,4.437 a 0.124,0.124 0 0 0 -0.124,0.123 v 3.39 c 0,0.068 0.055,0.123 0.124,0.123 h 3.08 a 0.124,0.124 0 0 0 0.125,-0.124 v -3.39 a 0.124,0.124 0 0 0 -0.124,-0.122 z m 0,4.403 a 0.124,0.124 0 0 0 -0.124,0.124 v 3.39 c 0,0.068 0.055,0.124 0.124,0.124 h 3.08 a 0.124,0.124 0 0 0 0.125,-0.125 v -3.39 a 0.124,0.124 0 0 0 -0.124,-0.123 z m 0,-17.943 a 0.124,0.124 0 0 0 -0.124,0.124 v 3.39 c 0,0.068 0.055,0.124 0.124,0.124 h 3.08 a 0.124,0.124 0 0 0 0.125,-0.124 v -3.39 a 0.124,0.124 0 0 0 -0.124,-0.124 z"
       style="color:#000000;font-style:normal;font-variant:normal;font-weight:400;font-stretch:normal;font-size:medium;line-height:normal;font-family:sans-serif;font-variant-ligatures:normal;font-variant-position:normal;font-variant-caps:normal;font-variant-numeric:normal;font-variant-alternates:normal;font-feature-settings:normal;text-indent:0;text-align:start;text-decoration:none;text-decoration-line:none;text-decoration-style:solid;text-decoration-color:#000000;letter-spacing:normal;word-spacing:normal;text-transform:none;writing-mode:lr-tb;direction:ltr;text-orientation:mixed;dominant-baseline:auto;baseline-shift:baseline;text-anchor:start;white-space:normal;shape-padding:0;clip-rule:nonzero;display:inline;overflow:visible;visibility:visible;opacity:1;isolation:auto;mix-blend-mode:normal;color-interpolation:sRGB;color-interpolation-filters:linearRGB;solid-color:#000000;solid-opacity:1;fill:#000000;fill-opacity:1;fill-rule:evenodd;stroke:none;stroke-linecap:butt;stroke-linejoin:miter;stroke-miterlimit:4;stroke-dasharray:4.7625, 1.5875;stroke-dashoffset:0.79375;stroke-opacity:1;color-rendering:auto;image-rendering:auto;shape-rendering:auto;text-rendering:auto"
       transform="matrix(0.8319,0,0,0.75397,22.706,-170.943)"
       id="path10" />
  </g>
  <g
     style="fill:#000000;fill-opacity:1;stroke:none"
     id="g12"
     transform="translate(0,-0.52916667)">
    <path
       d="m 1.04,284.71 17.344,0.051"
       style="color:#000000;font-style:normal;font-variant:normal;font-weight:400;font-stretch:normal;font-size:medium;line-height:normal;font-family:sans-serif;font-variant-ligatures:normal;font-variant-position:normal;font-variant-caps:normal;font-variant-numeric:normal;font-variant-alternates:normal;font-feature-settings:normal;text-indent:0;text-align:start;text-decoration:none;text-decoration-line:none;text-decoration-style:solid;text-decoration-color:#000000;letter-spacing:normal;word-spacing:normal;text-transform:none;writing-mode:lr-tb;direction:ltr;text-orientation:mixed;dominant-baseline:auto;baseline-shift:baseline;text-anchor:start;white-space:normal;shape-padding:0;clip-rule:nonzero;display:inline;overflow:visible;visibility:visible;isolation:auto;mix-blend-mode:normal;color-interpolation:sRGB;color-interpolation-filters:linearRGB;solid-color:#000000;solid-opacity:1;fill:#000000;fill-opacity:1;fill-rule:evenodd;stroke:none;stroke-width:0.260467;stroke-linecap:butt;stroke-linejoin:miter;stroke-miterlimit:4;stroke-dasharray:none;stroke-dashoffset:0;stroke-opacity:1;color-rendering:auto;image-rendering:auto;shape-rendering:auto;text-rendering:auto"
       transform="matrix(2.1271,0,0,0.99912,20.113,-231.269)"
       id="path11" />
    <path
       d="m 1.041,284.58 v 0.26 l 17.344,0.05 v -0.26 z"
       style="color:#000000;font-style:normal;font-variant:normal;font-weight:400;font-stretch:normal;font-size:medium;line-height:normal;font-family:sans-serif;font-variant-ligatures:normal;font-variant-position:normal;font-variant-caps:normal;font-variant-numeric:normal;font-variant-alternates:normal;font-feature-settings:normal;text-indent:0;text-align:start;text-decoration:none;text-decoration-line:none;text-decoration-style:solid;text-decoration-color:#000000;letter-spacing:normal;word-spacing:normal;text-transform:none;writing-mode:lr-tb;direction:ltr;text-orientation:mixed;dominant-baseline:auto;baseline-shift:baseline;text-anchor:start;white-space:normal;shape-padding:0;clip-rule:nonzero;display:inline;overflow:visible;visibility:visible;isolation:auto;mix-blend-mode:normal;color-interpolation:sRGB;color-interpolation-filters:linearRGB;solid-color:#000000;solid-opacity:1;fill:#000000;fill-opacity:1;fill-rule:evenodd;stroke:none;stroke-linecap:butt;stroke-linejoin:miter;stroke-miterlimit:4;stroke-dasharray:none;stroke-dashoffset:0;stroke-opacity:1;color-rendering:auto;image-rendering:auto;shape-rendering:auto;text-rendering:auto"
       transform="matrix(2.1271,0,0,0.99912,20.113,-231.269)"
       id="path12" />
  </g>
  <path
     d="m 55.799833,54.355499 c 0,0 -0.755,0.374001 -1.417,0.911001 v 0.002 a 8.6,8.6 0 0 0 1.417,0.912 v -0.002 h 1.618 v -1.822001 z m 0.254,0.318001 0.461,0.461 0.462,-0.461 0.143,0.144 -0.462,0.461 0.462,0.46 -0.143,0.145 -0.462,-0.462 -0.461,0.462 -0.143,-0.144 0.46,-0.46 -0.46,-0.462 z"
     style="color:#000000;display:inline;overflow:visible;visibility:visible;fill:#000000;fill-opacity:1;fill-rule:nonzero;stroke:none;stroke-width:0.033746;marker:none"
     id="path13" />
  <path
     d="m 46.214,37.392831 -0.002,0.203 10.606,0.037 v -0.203 z m 0.095,3.694 -0.002,0.202 10.606,0.037 v -0.202 z m -0.052,3.23 v 0.205 l 10.604,0.037 0.002,-0.205 z m -4.417,-1.853 a 0.095,0.095 0 0 0 -0.095,0.096 v 2.441 c 0,0.053 0.043,0.096 0.096,0.096 h 2.525 a 0.095,0.095 0 0 0 0.096,-0.096 v -2.44 a 0.095,0.095 0 0 0 -0.096,-0.097 z m 0,-6.287 a 0.095,0.095 0 0 0 -0.095,0.094 v 2.443 c 0,0.052 0.043,0.094 0.096,0.094 h 2.525 a 0.095,0.095 0 0 0 0.096,-0.094 v -2.443 a 0.095,0.095 0 0 0 -0.096,-0.094 z m 0,3.171 a 0.095,0.095 0 0 0 -0.095,0.096 v 2.44 c 0,0.054 0.043,0.097 0.096,0.097 h 2.525 a 0.095,0.095 0 0 0 0.096,-0.096 v -2.441 a 0.095,0.095 0 0 0 -0.096,-0.096 z m 4.277,-24.752 v 0.192 l 10.604,0.036 0.002,-0.19 z m 0.045,3.527 v 0.19 l 10.604,0.04 v -0.193 z m 0.052,3.406 -0.002,0.19 10.605,0.036 0.002,-0.19 z m 0.094,3.695 v 0.19 l 10.605,0.038 v -0.192 z m -0.051,3.23 v 0.19 l 10.605,0.037 v -0.19 z m 0.096,3.152 -0.002,0.19 10.605,0.039 0.002,-0.192 z m 0.003,3.231 v 0.19 l 10.605,0.037 v -0.19 z m 0,-23.677 v 0.19 l 10.605,0.037 v -0.19 z m -4.514,15.441 c -0.057,0 -0.102,0.04 -0.102,0.09 v 2.44 c 0,0.05 0.045,0.09 0.102,0.09 h 2.525 c 0.056,0 0.102,-0.04 0.102,-0.09 v -2.441 c 0,-0.05 -0.046,-0.09 -0.102,-0.09 z m 0,2.928 c -0.057,0 -0.102,0.04 -0.102,0.088 v 2.442 c 0,0.05 0.045,0.09 0.102,0.09 h 2.525 c 0.056,0 0.102,-0.04 0.102,-0.09 v -2.442 c 0,-0.05 -0.046,-0.09 -0.102,-0.09 z m 0,3.154 c -0.057,0 -0.102,0.04 -0.102,0.09 v 2.44 c 0,0.05 0.045,0.09 0.102,0.09 h 2.525 c 0.056,0 0.102,-0.04 0.102,-0.09 v -2.441 c 0,-0.05 -0.046,-0.09 -0.102,-0.09 z m 0,-18.817 c -0.057,0 -0.102,0.04 -0.102,0.09 v 2.44 c 0,0.05 0.045,0.09 0.102,0.09 h 2.525 c 0.056,0 0.102,-0.04 0.102,-0.09 v -2.44 c 0,-0.05 -0.046,-0.09 -0.102,-0.09 z m 0,3.25 c -0.057,0 -0.102,0.04 -0.102,0.09 v 2.441 c 0,0.05 0.045,0.09 0.102,0.09 h 2.525 c 0.056,0 0.102,-0.04 0.102,-0.09 v -2.44 c 0,-0.05 -0.046,-0.09 -0.102,-0.09 z m 0,3.197 c -0.056,0 -0.101,0.04 -0.102,0.088 v 2.442 c 0,0.05 0.045,0.09 0.102,0.09 h 2.525 c 0.056,0 0.102,-0.04 0.102,-0.09 v -2.442 c 0,-0.05 -0.046,-0.089 -0.102,-0.089 z m 0,3.172 c -0.057,0 -0.102,0.04 -0.102,0.09 v 2.44 c 0,0.05 0.045,0.09 0.102,0.09 h 2.525 c 0.056,0 0.102,-0.04 0.102,-0.09 v -2.441 c 0,-0.05 -0.046,-0.09 -0.102,-0.09 z m 0,-12.926 c -0.057,0 -0.102,0.04 -0.102,0.09 v 2.44 c 0,0.05 0.045,0.09 0.102,0.09 h 2.525 c 0.056,0 0.102,-0.04 0.102,-0.09 v -2.441 c 0,-0.05 -0.046,-0.09 -0.102,-0.09 z"
     style="color:#000000;font-style:normal;font-variant:normal;font-weight:400;font-stretch:normal;font-size:medium;line-height:normal;font-family:sans-serif;font-variant-ligatures:normal;font-variant-position:normal;font-variant-caps:normal;font-variant-numeric:normal;font-variant-alternates:normal;font-feature-settings:normal;text-indent:0;text-align:start;text-decoration:none;text-decoration-line:none;text-decoration-style:solid;text-decoration-color:#000000;letter-spacing:normal;word-spacing:normal;text-transform:none;writing-mode:lr-tb;direction:ltr;text-orientation:mixed;dominant-baseline:auto;baseline-shift:baseline;text-anchor:start;white-space:normal;shape-padding:0;clip-rule:nonzero;display:inline;overflow:visible;visibility:visible;isolation:auto;mix-blend-mode:normal;color-interpolation:sRGB;color-interpolation-filters:linearRGB;solid-color:#000000;solid-opacity:1;fill:#000000;fill-opacity:1;fill-rule:evenodd;stroke:none;stroke-width:0.99914;stroke-linecap:butt;stroke-linejoin:miter;stroke-miterlimit:4;stroke-dasharray:none;stroke-dashoffset:0.264583;stroke-opacity:1;color-rendering:auto;image-rendering:auto;shape-rendering:auto;text-rendering:auto"
     id="path14" />
  <path
     d="M16.132 12.685a5 5 0 0 1-.522.63c-.318.315-.747.69-.747.69s-.453-.369-.75-.689a5 5 0 0 1-.522-.63l-.022.008q-.607.23-1.069.61v1.187h4.722v-1.187a3.8 3.8 0 0 0-1.063-.61z"
     style="font-style:normal;font-variant:normal;font-weight:400;font-stretch:normal;font-size:15.003px;line-height:125%;font-family:Ubuntu;-inkscape-font-specification:Ubuntu;text-align:center;letter-spacing:0;word-spacing:0;writing-mode:lr-tb;text-anchor:middle;fill:#000;fill-opacity:1;stroke:none;stroke-width:.0605261;stroke-opacity:1"
     id="path15" />
  <path
     d="M14.86 9.773c-.373 0-.734.158-.998.435a1.54 1.54 0 0 0-.415 1.053 1.4 1.4 0 0 0 .087.504c.185.46.464.818.719 1.095q.108.12.231.241h.744q.125-.12.243-.242h-.002c.253-.276.534-.634.72-1.094a1.3 1.3 0 0 0 .086-.502v-.002a1.54 1.54 0 0 0-.415-1.053 1.38 1.38 0 0 0-.997-.435Z"
     style="font-style:normal;font-variant:normal;font-weight:400;font-stretch:normal;font-size:121.63px;line-height:125%;font-family:Ubuntu;-inkscape-font-specification:Ubuntu;text-align:center;letter-spacing:0;word-spacing:0;writing-mode:lr-tb;text-anchor:middle;fill:#000;fill-opacity:1;stroke:none;stroke-width:.0605261;stroke-opacity:1"
     id="path16" />
  <path
     d="m9.56 16.127-.004.263 10.606.053.004-.263z"
     style="color:#000;font-style:normal;font-variant:normal;font-weight:400;font-stretch:normal;font-size:medium;line-height:normal;font-family:sans-serif;font-variant-ligatures:normal;font-variant-position:normal;font-variant-caps:normal;font-variant-numeric:normal;font-variant-alternates:normal;font-feature-settings:normal;text-indent:0;text-align:start;text-decoration:none;text-decoration-line:none;text-decoration-style:solid;text-decoration-color:#000;letter-spacing:normal;word-spacing:normal;text-transform:none;writing-mode:lr-tb;direction:ltr;text-orientation:mixed;dominant-baseline:auto;baseline-shift:baseline;text-anchor:start;white-space:normal;shape-padding:0;clip-rule:nonzero;display:inline;overflow:visible;visibility:visible;isolation:auto;mix-blend-mode:normal;color-interpolation:sRGB;color-interpolation-filters:linearRGB;solid-color:#000;solid-opacity:1;fill:#000;fill-opacity:1;fill-rule:evenodd;stroke:none;stroke-width:1.34967;stroke-linecap:butt;stroke-linejoin:miter;stroke-miterlimit:4;stroke-dasharray:8.57048,8.57048;stroke-dashoffset:.526152;stroke-opacity:1;color-rendering:auto;image-rendering:auto;shape-rendering:auto;text-rendering:auto"
     id="path17" />
  <path
     d="M10.377 20.823v-.318h-.308z"
     style="color:#000;display:inline;overflow:visible;visibility:visible;fill:#000;fill-opacity:1;fill-rule:nonzero;stroke:none;stroke-width:1.22418;marker:none"
     id="path18" />
  <path
     d="m9.556 20.42-.82.77v.996h.82v-.77l.035-.012q.027-.007.057-.012.033-.006.068-.01l.069-.005a.4.4 0 0 1 .135.022.2.2 0 0 1 .088.065q.033.046.046.121.015.075.015.18v.42h.308v-.995z"
     style="font-style:normal;font-variant:normal;font-weight:400;font-stretch:normal;font-size:15px;line-height:125%;font-family:Ubuntu;-inkscape-font-specification:Ubuntu;text-align:center;letter-spacing:0;word-spacing:0;writing-mode:lr-tb;text-anchor:middle;fill:#000;fill-opacity:1;stroke:none;stroke-width:.0255037"
     id="path19" />
  <path
     d="m8.584 21.387-.114-.12 1.086-1.123 1.087 1.123-.114.12-.973-.93z"
     style="color:#000;font-style:normal;font-variant:normal;font-weight:400;font-stretch:normal;line-height:normal;font-family:sans-serif;-inkscape-font-specification:sans-serif;text-indent:0;text-align:start;text-decoration:none;text-decoration-line:none;letter-spacing:normal;word-spacing:normal;text-transform:none;writing-mode:lr-tb;direction:ltr;baseline-shift:baseline;text-anchor:start;clip-rule:nonzero;display:inline;overflow:visible;visibility:visible;color-interpolation:sRGB;color-interpolation-filters:linearRGB;fill:#000;fill-opacity:1;stroke:none;stroke-width:.153022;marker:none;color-rendering:auto;image-rendering:auto;shape-rendering:auto;text-rendering:auto"
     id="path20" />
  <path
     d="m11.672 21.007-.003.263 8.132.053.006-.264z"
     style="color:#000;font-style:normal;font-variant:normal;font-weight:400;font-stretch:normal;font-size:medium;line-height:normal;font-family:sans-serif;font-variant-ligatures:normal;font-variant-position:normal;font-variant-caps:normal;font-variant-numeric:normal;font-variant-alternates:normal;font-feature-settings:normal;text-indent:0;text-align:start;text-decoration:none;text-decoration-line:none;text-decoration-style:solid;text-decoration-color:#000;letter-spacing:normal;word-spacing:normal;text-transform:none;writing-mode:lr-tb;direction:ltr;text-orientation:mixed;dominant-baseline:auto;baseline-shift:baseline;text-anchor:start;white-space:normal;shape-padding:0;clip-rule:nonzero;display:inline;overflow:visible;visibility:visible;isolation:auto;mix-blend-mode:normal;color-interpolation:sRGB;color-interpolation-filters:linearRGB;solid-color:#000;solid-opacity:1;fill:#000;fill-opacity:1;fill-rule:evenodd;stroke:none;stroke-width:1.25483;stroke-linecap:butt;stroke-linejoin:miter;stroke-miterlimit:4;stroke-dasharray:7.96819,7.96819;stroke-dashoffset:.518464;stroke-opacity:1;color-rendering:auto;image-rendering:auto;shape-rendering:auto;text-rendering:auto"
     id="path21" />
  <path
     d="M8.562 23.643v1.99h1.453l.536-.537v-1.453zm.153.153h1.683v1.224h-.46v.46H8.715Z"
     style="color:#000;display:inline;overflow:visible;visibility:visible;fill:#000;fill-opacity:1;fill-rule:nonzero;stroke:none;stroke-width:.102014;marker:none"
     id="path22" />
  <path
     d="M9.02 24.102h1.07v.153H9.02Zm0 .306h1.07v.153H9.02Zm0 .306h.613v.153H9.02z"
     style="color:#000;display:inline;overflow:visible;visibility:visible;fill:#000;fill-opacity:1;fill-rule:nonzero;stroke:none;stroke-width:.153022;marker:none"
     id="path23" />
  <path
     d="m11.672 24.484-.003.265 8.833.041.003-.265z"
     style="color:#000;font-style:normal;font-variant:normal;font-weight:400;font-stretch:normal;font-size:medium;line-height:normal;font-family:sans-serif;font-variant-ligatures:normal;font-variant-position:normal;font-variant-caps:normal;font-variant-numeric:normal;font-variant-alternates:normal;font-feature-settings:normal;text-indent:0;text-align:start;text-decoration:none;text-decoration-line:none;text-decoration-style:solid;text-decoration-color:#000;letter-spacing:normal;word-spacing:normal;text-transform:none;writing-mode:lr-tb;direction:ltr;text-orientation:mixed;dominant-baseline:auto;baseline-shift:baseline;text-anchor:start;white-space:normal;shape-padding:0;clip-rule:nonzero;display:inline;overflow:visible;visibility:visible;isolation:auto;mix-blend-mode:normal;color-interpolation:sRGB;color-interpolation-filters:linearRGB;solid-color:#000;solid-opacity:1;fill:#000;fill-opacity:1;fill-rule:evenodd;stroke:none;stroke-width:1.21166;stroke-linecap:butt;stroke-linejoin:miter;stroke-miterlimit:4;stroke-dasharray:7.69408,7.69408;stroke-dashoffset:.41014;stroke-opacity:1;color-rendering:auto;image-rendering:auto;shape-rendering:auto;text-rendering:auto"
     id="path24" />
  <path
     d="M9.938 35.118a.233.233 0 1 0 0 .465.233.233 0 0 0 0-.465m-.668.244-.421.808h1.018l-.311-.597-.088.168z"
     style="color:#000;display:inline;overflow:visible;visibility:visible;fill:#000;fill-opacity:1;fill-rule:nonzero;stroke:none;stroke-width:.146791;marker:none"
     id="path25" />
  <path
     d="M8.555 34.776v1.907h1.91v-1.908zm.147.146h1.615v1.394H8.702Z"
     style="color:#000;display:inline;overflow:visible;visibility:visible;fill:#000;fill-opacity:1;fill-rule:nonzero;stroke:none;stroke-width:.0978604;marker:none"
     id="path26" />
  <path
     d="m11.672 35.576-.003.265 8.833.041.003-.263z"
     style="color:#000;font-style:normal;font-variant:normal;font-weight:400;font-stretch:normal;font-size:medium;line-height:normal;font-family:sans-serif;font-variant-ligatures:normal;font-variant-position:normal;font-variant-caps:normal;font-variant-numeric:normal;font-variant-alternates:normal;font-feature-settings:normal;text-indent:0;text-align:start;text-decoration:none;text-decoration-line:none;text-decoration-style:solid;text-decoration-color:#000;letter-spacing:normal;word-spacing:normal;text-transform:none;writing-mode:lr-tb;direction:ltr;text-orientation:mixed;dominant-baseline:auto;baseline-shift:baseline;text-anchor:start;white-space:normal;shape-padding:0;clip-rule:nonzero;display:inline;overflow:visible;visibility:visible;isolation:auto;mix-blend-mode:normal;color-interpolation:sRGB;color-interpolation-filters:linearRGB;solid-color:#000;solid-opacity:1;fill:#000;fill-opacity:1;fill-rule:evenodd;stroke:none;stroke-width:1.21265;stroke-linecap:butt;stroke-linejoin:miter;stroke-miterlimit:4;stroke-dasharray:7.70033,7.70033;stroke-dashoffset:.42039;stroke-opacity:1;color-rendering:auto;image-rendering:auto;shape-rendering:auto;text-rendering:auto"
     id="path27" />
  <path
     d="M9.93 31.312c.263 0 .462.044.462.044v1.413l-.002.034a.5.5 0 0 1-.057.201l-.007.012-.008.011q-.08.11-.277.11c-.23 0-.328-.162-.328-.305v-.022c.008-.118.07-.282.294-.282h.017a.4.4 0 0 1 .092.015h.002l.01.004q.003 0 .005.002l.008.003.007.003h.004q.044.02.083.045v-.768s-.571-.105-.94.128v.991l-.003.034a.44.44 0 0 1-.072.224c-.054.073-.158.11-.287.11-.231 0-.328-.163-.328-.306 0-.117.056-.304.294-.304.09 0 .158.028.22.068l.013.008v-1.244c.246-.182.54-.228.8-.229z"
     style="display:inline;fill:#000;fill-opacity:1;stroke:none;stroke-width:.0244652"
     id="path28" />
  <path
     d="m11.672 32.156-.003.264 8.135.053.003-.264z"
     style="color:#000;font-style:normal;font-variant:normal;font-weight:400;font-stretch:normal;font-size:medium;line-height:normal;font-family:sans-serif;font-variant-ligatures:normal;font-variant-position:normal;font-variant-caps:normal;font-variant-numeric:normal;font-variant-alternates:normal;font-feature-settings:normal;text-indent:0;text-align:start;text-decoration:none;text-decoration-line:none;text-decoration-style:solid;text-decoration-color:#000;letter-spacing:normal;word-spacing:normal;text-transform:none;writing-mode:lr-tb;direction:ltr;text-orientation:mixed;dominant-baseline:auto;baseline-shift:baseline;text-anchor:start;white-space:normal;shape-padding:0;clip-rule:nonzero;display:inline;overflow:visible;visibility:visible;isolation:auto;mix-blend-mode:normal;color-interpolation:sRGB;color-interpolation-filters:linearRGB;solid-color:#000;solid-opacity:1;fill:#000;fill-opacity:1;fill-rule:evenodd;stroke:none;stroke-width:1.18216;stroke-linecap:butt;stroke-linejoin:miter;stroke-miterlimit:4;stroke-dasharray:7.50674,7.50674;stroke-dashoffset:.460848;stroke-opacity:1;color-rendering:auto;image-rendering:auto;shape-rendering:auto;text-rendering:auto"
     id="path29" />
  <path
     d="M8.777 29.394v.46h2.028v-.46zm1.598.153h.277v.154h-.277z"
     style="color:#000;display:inline;overflow:visible;visibility:visible;fill:#000;fill-opacity:1;fill-rule:nonzero;stroke:none;stroke-width:.368738;marker:none"
     id="path30" />
  <path
     d="M9.116 28.011a11 11 0 0 0 .675 1.198h.002q.202-.322.395-.668.149-.269.277-.53z"
     style="color:#000;display:inline;overflow:visible;visibility:visible;fill:#000;fill-opacity:1;fill-rule:nonzero;stroke:none;stroke-width:.0921844;marker:none"
     id="path31" />
  <path
     d="M9.515 27.09v1.074h.553V27.09z"
     style="color:#000;font-style:normal;font-variant:normal;font-weight:400;font-stretch:normal;line-height:normal;font-family:Sans;-inkscape-font-specification:Sans;text-indent:0;text-align:start;text-decoration:none;text-decoration-line:none;letter-spacing:normal;word-spacing:normal;text-transform:none;writing-mode:lr-tb;direction:ltr;baseline-shift:baseline;text-anchor:start;display:inline;overflow:visible;visibility:visible;fill:#000;fill-opacity:1;stroke:none;stroke-width:.122912;marker:none"
     id="path32" />
  <path
     d="m11.576 28.348-.004.227 9.706.035.003-.226z"
     style="color:#000;font-style:normal;font-variant:normal;font-weight:400;font-stretch:normal;font-size:medium;line-height:normal;font-family:sans-serif;font-variant-ligatures:normal;font-variant-position:normal;font-variant-caps:normal;font-variant-numeric:normal;font-variant-alternates:normal;font-feature-settings:normal;text-indent:0;text-align:start;text-decoration:none;text-decoration-line:none;text-decoration-style:solid;text-decoration-color:#000;letter-spacing:normal;word-spacing:normal;text-transform:none;writing-mode:lr-tb;direction:ltr;text-orientation:mixed;dominant-baseline:auto;baseline-shift:baseline;text-anchor:start;white-space:normal;shape-padding:0;clip-rule:nonzero;display:inline;overflow:visible;visibility:visible;isolation:auto;mix-blend-mode:normal;color-interpolation:sRGB;color-interpolation-filters:linearRGB;solid-color:#000;solid-opacity:1;fill:#000;fill-opacity:1;fill-rule:evenodd;stroke:none;stroke-width:1.17689;stroke-linecap:butt;stroke-linejoin:miter;stroke-miterlimit:4;stroke-dasharray:7.47329,7.47329;stroke-dashoffset:.400712;stroke-opacity:1;color-rendering:auto;image-rendering:auto;shape-rendering:auto;text-rendering:auto"
     id="path33" />
  <path
     d="M10.38 39.83a.98.98 0 0 0-1.694-.979.979.979 0 0 0 1.694.98m-.29-.168a.64.64 0 0 1-.878.234.642.642 0 1 1 .642-1.112.64.64 0 0 1 .236.878"
     style="color:#000;font-style:normal;font-variant:normal;font-weight:400;font-stretch:normal;font-size:medium;line-height:normal;font-family:sans-serif;font-variant-ligatures:normal;font-variant-position:normal;font-variant-caps:normal;font-variant-numeric:normal;font-variant-alternates:normal;font-feature-settings:normal;text-indent:0;text-align:start;text-decoration:none;text-decoration-line:none;text-decoration-style:solid;text-decoration-color:#000;letter-spacing:normal;word-spacing:normal;text-transform:none;writing-mode:lr-tb;direction:ltr;text-orientation:mixed;dominant-baseline:auto;baseline-shift:baseline;text-anchor:start;white-space:normal;shape-padding:0;clip-rule:nonzero;display:inline;overflow:visible;visibility:visible;isolation:auto;mix-blend-mode:normal;color-interpolation:sRGB;color-interpolation-filters:linearRGB;solid-color:#000;solid-opacity:1;fill:#000;fill-opacity:1;fill-rule:nonzero;stroke:none;stroke-width:.105465;stroke-linecap:butt;stroke-linejoin:miter;stroke-miterlimit:4;stroke-dasharray:none;stroke-dashoffset:0;stroke-opacity:1;marker:none;color-rendering:auto;image-rendering:auto;shape-rendering:auto;text-rendering:auto"
     id="path34" />
  <path
     d="m9.728 38.14-.39.06v.39h.39zm.708.428-.3-.25-.27.32.3.252zm.285.761-.07-.384-.411.073.068.384zm-.271.767.194-.34-.362-.208-.195.338zm-.7.413.366-.136-.142-.392-.367.134zm-.802-.133.368.13.143-.39-.367-.135zm-.528-.618.197.337.362-.209-.196-.338zm-.008-.813-.065.385.41.072.069-.384zm.517-.628-.298.253.268.32.3-.25z"
     style="color:#000;display:inline;overflow:visible;visibility:visible;fill:#000;fill-opacity:1;fill-rule:nonzero;stroke:none;stroke-width:.0558086;marker:none"
     id="path35" />
  <path
     d="m11.408 39.172-.004.2 9.874.03.003-.198z"
     style="color:#000;font-style:normal;font-variant:normal;font-weight:400;font-stretch:normal;font-size:medium;line-height:normal;font-family:sans-serif;font-variant-ligatures:normal;font-variant-position:normal;font-variant-caps:normal;font-variant-numeric:normal;font-variant-alternates:normal;font-feature-settings:normal;text-indent:0;text-align:start;text-decoration:none;text-decoration-line:none;text-decoration-style:solid;text-decoration-color:#000;letter-spacing:normal;word-spacing:normal;text-transform:none;writing-mode:lr-tb;direction:ltr;text-orientation:mixed;dominant-baseline:auto;baseline-shift:baseline;text-anchor:start;white-space:normal;shape-padding:0;clip-rule:nonzero;display:inline;overflow:visible;visibility:visible;isolation:auto;mix-blend-mode:normal;color-interpolation:sRGB;color-interpolation-filters:linearRGB;solid-color:#000;solid-opacity:1;fill:#000;fill-opacity:1;fill-rule:evenodd;stroke:none;stroke-width:1.11251;stroke-linecap:butt;stroke-linejoin:miter;stroke-miterlimit:4;stroke-dasharray:7.06445,7.06445;stroke-dashoffset:.385675;stroke-opacity:1;color-rendering:auto;image-rendering:auto;shape-rendering:auto;text-rendering:auto"
     id="path36" />
  <path
     d="m9.28 41.966-.008.015a20 20 0 0 0-.378.874l-.053.14h.402l.094-.249c.046-.117.087-.21.124-.299.036.085.072.175.117.292l.096.255h.41l-.056-.138q-.09-.237-.18-.452a15 15 0 0 0-.19-.423l-.008-.015zm-.67 1.114a.229.229 0 1 0 0 .457h1.712a.229.229 0 1 0 0-.457zm0 .114h.999a.115.115 0 1 1 0 .23H8.61a.115.115 0 1 1 0-.23m-.004.43-.106.302-.014.037h.422l.087-.24.036-.1zm1.278 0q.016.05.035.098l.08.226.006.015h.445l-.015-.037-.11-.303h-.004z"
     style="font-style:normal;font-variant:normal;font-weight:500;font-stretch:normal;font-size:12.0041px;line-height:125%;font-family:Ubuntu;-inkscape-font-specification:&quot;Ubuntu Medium&quot;;text-align:start;letter-spacing:0;word-spacing:0;writing-mode:lr-tb;text-anchor:start;display:inline;fill:#000;fill-opacity:1;stroke:none;stroke-width:.0264356"
     id="path37" />
  <path
     d="m11.407 42.805-.003.265 8.4.053.003-.265z"
     style="color:#000;font-style:normal;font-variant:normal;font-weight:400;font-stretch:normal;font-size:medium;line-height:normal;font-family:sans-serif;font-variant-ligatures:normal;font-variant-position:normal;font-variant-caps:normal;font-variant-numeric:normal;font-variant-alternates:normal;font-feature-settings:normal;text-indent:0;text-align:start;text-decoration:none;text-decoration-line:none;text-decoration-style:solid;text-decoration-color:#000;letter-spacing:normal;word-spacing:normal;text-transform:none;writing-mode:lr-tb;direction:ltr;text-orientation:mixed;dominant-baseline:auto;baseline-shift:baseline;text-anchor:start;white-space:normal;shape-padding:0;clip-rule:nonzero;display:inline;overflow:visible;visibility:visible;isolation:auto;mix-blend-mode:normal;color-interpolation:sRGB;color-interpolation-filters:linearRGB;solid-color:#000;solid-opacity:1;fill:#000;fill-opacity:1;fill-rule:evenodd;stroke:none;stroke-width:1.20122;stroke-linecap:butt;stroke-linejoin:miter;stroke-miterlimit:4;stroke-dasharray:7.62777,7.62777;stroke-dashoffset:.468278;stroke-opacity:1;color-rendering:auto;image-rendering:auto;shape-rendering:auto;text-rendering:auto"
     id="path38" />
  <path
     d="M9.092 45.42c-.272 0-.407 0-.407.316v.336h.163v-.267c0-.222.08-.222.295-.222h1.04c.215 0 .295 0 .295.222v.86c0 .222-.08.222-.295.222h-.194v.163h.244c.272 0 .408 0 .408-.316v-.998c0-.316-.136-.316-.408-.316z"
     style="font-style:normal;font-variant:normal;font-weight:400;font-stretch:normal;font-size:15px;line-height:125%;font-family:Ubuntu;-inkscape-font-specification:Ubuntu;text-align:center;letter-spacing:0;word-spacing:0;writing-mode:lr-tb;text-anchor:middle;display:inline;fill:#000;fill-opacity:1;stroke:none;stroke-width:.0271698"
     id="path39" />
  <path
     d="M8.766 46.153c-.272 0-.407 0-.407.316v.59c0 .317.135.317.407.317H9.5c.27 0 .407 0 .407-.316v-.555l-.163.163v.322c0 .223-.08.223-.295.223h-.632c-.216 0-.295 0-.295-.223v-.45c0-.224.08-.224.295-.224h.575l.163-.163h-.001z"
     style="font-style:normal;font-variant:normal;font-weight:400;font-stretch:normal;font-size:15px;line-height:125%;font-family:Ubuntu;-inkscape-font-specification:Ubuntu;text-align:center;letter-spacing:0;word-spacing:0;writing-mode:lr-tb;text-anchor:middle;display:inline;fill:#000;fill-opacity:1;stroke:none;stroke-width:.0271698"
     id="path40" />
  <path
     d="M10.145 46.371s.119-.305.17-.625a3.6 3.6 0 0 0-.625.172z"
     style="color:#000;display:inline;overflow:visible;visibility:visible;fill:#000;fill-opacity:1;fill-rule:nonzero;stroke:none;stroke-width:.0815097;marker:none"
     id="path41" />
  <path
     d="m9.984 45.958-.625.625.119.12.625-.626z"
     style="color:#000;font-style:normal;font-variant:normal;font-weight:400;font-stretch:normal;line-height:normal;font-family:Sans;-inkscape-font-specification:Sans;text-indent:0;text-align:start;text-decoration:none;text-decoration-line:none;letter-spacing:normal;word-spacing:normal;text-transform:none;writing-mode:lr-tb;direction:ltr;baseline-shift:baseline;text-anchor:start;display:inline;overflow:visible;visibility:visible;fill:#000;fill-opacity:1;stroke:none;stroke-width:.24453;marker:none"
     id="path42" />
  <path
     d="m11.408 46.245-.004.265 9.873.04.004-.264z"
     style="color:#000;font-style:normal;font-variant:normal;font-weight:400;font-stretch:normal;font-size:medium;line-height:normal;font-family:sans-serif;font-variant-ligatures:normal;font-variant-position:normal;font-variant-caps:normal;font-variant-numeric:normal;font-variant-alternates:normal;font-feature-settings:normal;text-indent:0;text-align:start;text-decoration:none;text-decoration-line:none;text-decoration-style:solid;text-decoration-color:#000;letter-spacing:normal;word-spacing:normal;text-transform:none;writing-mode:lr-tb;direction:ltr;text-orientation:mixed;dominant-baseline:auto;baseline-shift:baseline;text-anchor:start;white-space:normal;shape-padding:0;clip-rule:nonzero;display:inline;overflow:visible;visibility:visible;isolation:auto;mix-blend-mode:normal;color-interpolation:sRGB;color-interpolation-filters:linearRGB;solid-color:#000;solid-opacity:1;fill:#000;fill-opacity:1;fill-rule:evenodd;stroke:none;stroke-width:1.28101;stroke-linecap:butt;stroke-linejoin:miter;stroke-miterlimit:4;stroke-dasharray:8.13445,8.13445;stroke-dashoffset:.433614;stroke-opacity:1;color-rendering:auto;image-rendering:auto;shape-rendering:auto;text-rendering:auto"
     id="path43" />
  <path
     d="M6.904 8a.157.157 0 0 0-.156.158v49.686a.157.157 0 0 0 .156.156h52.192a.157.157 0 0 0 .156-.156V8.158A.157.157 0 0 0 59.096 8Zm.156.314h51.878v49.374H7.06Z"
     style="color:#000;font-style:normal;font-variant:normal;font-weight:400;font-stretch:normal;font-size:medium;line-height:normal;font-family:sans-serif;font-variant-ligatures:normal;font-variant-position:normal;font-variant-caps:normal;font-variant-numeric:normal;font-variant-alternates:normal;font-feature-settings:normal;text-indent:0;text-align:start;text-decoration:none;text-decoration-line:none;text-decoration-style:solid;text-decoration-color:#000;letter-spacing:normal;word-spacing:normal;text-transform:none;writing-mode:lr-tb;direction:ltr;text-orientation:mixed;dominant-baseline:auto;baseline-shift:baseline;text-anchor:start;white-space:normal;shape-padding:0;clip-rule:nonzero;display:inline;overflow:visible;visibility:visible;isolation:auto;mix-blend-mode:normal;color-interpolation:sRGB;color-interpolation-filters:linearRGB;solid-color:#000;solid-opacity:1;fill:#000;fill-opacity:1;fill-rule:nonzero;stroke:none;stroke-width:.999141;stroke-linecap:butt;stroke-linejoin:round;stroke-miterlimit:4;stroke-dasharray:none;stroke-dashoffset:0;stroke-opacity:1;color-rendering:auto;image-rendering:auto;shape-rendering:auto;text-rendering:auto"
     id="path44" />
  <path
     d="m22.079 8.19.232 49.62.265-.002-.234-49.618z"
     style="color:#000;font-style:normal;font-variant:normal;font-weight:400;font-stretch:normal;font-size:medium;line-height:normal;font-family:sans-serif;font-variant-ligatures:normal;font-variant-position:normal;font-variant-caps:normal;font-variant-numeric:normal;font-variant-alternates:normal;font-feature-settings:normal;text-indent:0;text-align:start;text-decoration:none;text-decoration-line:none;text-decoration-style:solid;text-decoration-color:#000;letter-spacing:normal;word-spacing:normal;text-transform:none;writing-mode:lr-tb;direction:ltr;text-orientation:mixed;dominant-baseline:auto;baseline-shift:baseline;text-anchor:start;white-space:normal;shape-padding:0;clip-rule:nonzero;display:inline;overflow:visible;visibility:visible;isolation:auto;mix-blend-mode:normal;color-interpolation:sRGB;color-interpolation-filters:linearRGB;solid-color:#000;solid-opacity:1;fill:#000;fill-opacity:1;fill-rule:evenodd;stroke:none;stroke-width:.999141;stroke-linecap:butt;stroke-linejoin:miter;stroke-miterlimit:4;stroke-dasharray:none;stroke-dashoffset:0;stroke-opacity:1;color-rendering:auto;image-rendering:auto;shape-rendering:auto;text-rendering:auto"
     id="path45" />
</svg>
